<svg width="461" height="69" viewBox="0 0 461 69" fill="none" xmlns="http://www.w3.org/2000/svg">
<g clip-path="url(#clip0_520_3171)">
<path fill-rule="evenodd" clip-rule="evenodd" d="M194.289 68.0159V37.5949C194.289 33.3054 191.009 30.3717 186.149 30.3471H158.206V40.0848H184.302C184.205 45.9028 181.897 50.7839 177.596 54.1613C173.514 57.4154 167.828 59.1904 161.219 59.363C153.152 59.363 146.98 57.1935 142.874 52.9287C138.937 48.8857 136.969 42.9198 136.969 35.3269C136.969 27.1916 139.01 20.782 143.092 16.3938C147.199 11.9071 153.249 9.56513 161 9.56513C170.647 9.56513 178.884 13.0904 181.872 21.349L191.227 18.6865C187.194 6.43427 176.697 0 161.024 0C140.663 0 126.424 14.3477 126.424 35.3269C126.424 56.3061 138.986 68.7802 160.053 68.7802C172.493 68.7802 180.852 61.7049 183.743 54.8269V68.0159H194.289ZM275.032 40.0848C274.91 51.3263 266.892 58.8699 254.986 58.8699C243.08 58.8699 234.891 51.2277 234.891 39.8136V1.0847H224.346V40.2573C224.346 57.3661 236.641 68.8295 254.986 68.8295C273.331 68.8295 285.553 57.3168 285.553 40.2573V1.0847H275.008L275.032 40.0848ZM85.5542 1.10926H96.0996V68.0159H85.5542V1.10926ZM359.76 33.6505H364.401C372.857 33.6505 372.857 40.7504 372.832 44.5962L372.614 68.0406H362.068V41.5639H326.739V68.0406H316.193V1.13401H343.553C353.491 1.13401 359.979 2.14476 364.571 4.46208C370.038 7.22315 372.711 11.8331 372.711 18.5879C372.711 26.3288 368.483 31.2592 359.76 33.6505ZM326.739 9.61443V31.7769L343.553 31.7276C355.313 31.7276 362.506 30.9881 362.506 20.3629C362.506 10.3294 355.338 9.61443 343.553 9.61443H326.739ZM415.403 38.8029V58.3522L460.646 58.3029V68.0406H404.906V1.13401H459.723V10.8224H415.403V28.9912H454.11V38.8029H415.403ZM0 68.1393H10.5697V38.9015H49.2283V29.0899H10.5697V10.9211H54.6954V1.23267H0V68.1393Z" fill="black"/>
</g>
<defs>
<clipPath id="clip0_520_3171">
<rect width="460.517" height="69" fill="white"/>
</clipPath>
</defs>
</svg>
